<?xml version="1.0" encoding="utf-8"?>
<!-- Generator: Adobe Illustrator 19.2.1, SVG Export Plug-In . SVG Version: 6.00 Build 0)  -->
<svg version="1.1" id="layer" xmlns="http://www.w3.org/2000/svg" xmlns:xlink="http://www.w3.org/1999/xlink" x="0px" y="0px"
	 viewBox="0 0 652 652" style="enable-background:new 0 0 652 652;" xml:space="preserve">
<path d="M205.5,323.8c-1.8-98-131.9-134.3-182.1-42.9c2.4,1.8,5.4,4.2,7.3,5.4c-3.6,7.9-6.7,16.3-7.9,24.2
	c-0.6,5.4-1.2,10.9-1.2,16.9c0,50.8,41.1,91.9,91.9,91.9s91.9-41.1,91.9-91.9C205.5,326.2,205.5,325,205.5,323.8L205.5,323.8z
	 M44.6,340.1c-1.2,9.7-0.6,13.3-0.6,14.5l-2.4,0.6c-0.6-1.8-3-7.3-3.6-15.1c-2.4-29.6,17.5-56.3,48.4-61.1
	c28.4-4.2,55,13.3,61.7,38.1l-2.4,0.6c-0.6-0.6-1.8-2.4-6-7.3C105.7,276,51.8,291.7,44.6,340.1L44.6,340.1z M131.7,356.4
	c-4.8,6.7-12.1,10.9-20.6,10.9c-13.9,0-25.4-11.5-25.4-25.4c0-13.3,10.3-24.2,23.6-24.8l0,0c7.9-0.6,15.7,4.2,19.4,10.9
	c3.6,7.9,2.4,16.9-3.6,23.6C127.4,353.4,129.9,355.2,131.7,356.4L131.7,356.4z M184.3,357.6c-13.3,30.2-40.5,46-69.6,45.4
	c-56.3-3-72.6-67.1-35.1-90.7l1.8,1.8c-0.6,0.6-3,2.4-6,9.7c-4.2,8.5-5.4,16.3-4.8,21.8c3,45.4,65.9,54.4,87.7,9.7
	c27.2-61.7-46-124-111.3-76.2l-1.2-1.8c16.9-26.6,50.2-38.7,82.3-30.8C177,259.1,203.7,309.9,184.3,357.6z"/>
<path d="M295,287.5v42.3c0,16.9-10.3,29.6-29,29.6c-18.8,0-29-12.7-29-29.6v-42.3H252v41.1c0,10.3,4.8,16.3,13.9,16.3
	c9.1,0,13.9-6,13.9-16.3v-41.1H295z M352.4,338.3c0,12.1-9.7,21.2-25.4,21.2h-24.8v-71.4h23.6c13.9,0,23,6.7,23,16.9
	c0,7.9-3.6,12.7-9.1,15.1C347,323.2,352.4,328.6,352.4,338.3L352.4,338.3z M318,302v15.1h7.9c4.8,0,7.9-3,7.9-7.3
	c0-4.2-3-7.3-7.9-7.3L318,302L318,302z M326.4,345.5c6.7,0,10.3-3,10.3-9.1c0-6-3.6-9.1-10.3-9.1H318v17.5L326.4,345.5L326.4,345.5z
	 M358.5,288.1h15.1v70.8h-15.1V288.1z M410.5,317.1c12.1,4.2,18.1,9.7,18.1,20.6c0,14.5-11.5,23-24.8,23c-12.1,0-21.8-5.4-25.4-15.7
	l12.1-9.1c2.4,6.7,7.9,10.3,13.9,10.3c4.8,0,8.5-3,8.5-7.3c0-4.2-3-6.7-12.7-10.3c-10.9-4.2-19.4-9.7-19.4-21.2c0-11.5,9.7-20,23-20
	c10.9,0,19.4,4.2,23,12.7l-12.1,8.5c-2.4-5.4-6-8.5-11.5-8.5c-4.8,0-7.9,2.4-7.9,6C396,310.5,400.2,313.5,410.5,317.1z M505.5,323.8
	c0,20.6-15.1,36.3-36.3,36.3c-21.8,0-36.3-15.7-36.3-33.9c0-12.1,4.8-21.2,11.5-26.6l-2.4-2.4c5.4-5.4,15.1-9.7,26.6-9.7
	C490.4,286.9,505.5,303.2,505.5,323.8L505.5,323.8z M489.7,323.8c0-12.7-7.9-21.8-20.6-21.8c-7.3,0-12.7,3-15.7,6l2.4,2.4
	c-3.6,3-7.3,7.3-7.3,15.1c0,10.9,7.9,20,20.6,20C481.9,345.5,489.7,336.5,489.7,323.8L489.7,323.8z M527.2,303.2v16.3h30.2V331
	h-30.2v27.8h-15.7v-70.8h48.4v14.5h-32.7V303.2z M621.6,303.2h-20v56.3h-15.1v-56.3H566v-15.1h55v15.1H621.6z"/>
</svg>
